<svg width="78" height="78" viewBox="0 0 78 78" fill="none" xmlns="http://www.w3.org/2000/svg">
<path d="M71.1878 1H5.93888C3.21121 1 1 3.23219 1 5.98574V71.8536C1 74.6072 3.21121 76.8393 5.93888 76.8393H71.1878C73.9154 76.8393 76.1266 74.6072 76.1266 71.8536V5.98574C76.1266 3.23219 73.9154 1 71.1878 1Z" stroke="#FCB515" stroke-width="2" stroke-miterlimit="10"/>
<path d="M19.4884 60.8225C22.8709 60.8225 25.8226 58.9708 27.4176 56.2392H43.1018C45.3201 59.0717 48.7576 60.8225 52.4884 60.8225C57.3101 60.8225 61.6459 57.8983 63.4793 53.4892H67.1551C67.2743 53.4892 67.3934 53.4617 67.5034 53.4158C67.5401 53.3975 67.5768 53.37 67.6134 53.3517C67.6776 53.315 67.7418 53.2783 67.7876 53.2325C67.8243 53.205 67.8426 53.1592 67.8701 53.1225C67.9068 53.0675 67.9526 53.0217 67.9801 52.9575C67.9984 52.9117 68.0076 52.8658 68.0259 52.8108C68.0443 52.7558 68.0626 52.7192 68.0718 52.6642L68.9884 43.4975C68.9884 43.4975 68.9884 43.47 68.9884 43.4517C68.9884 43.4333 68.9884 43.4242 68.9884 43.4058C68.9884 43.36 68.9701 43.3142 68.9609 43.2683C68.9518 43.2042 68.9426 43.1492 68.9243 43.0942C68.9059 43.0392 68.8693 42.9933 68.8418 42.9383C68.8143 42.8833 68.7868 42.8375 68.7501 42.7917C68.7134 42.7458 68.6584 42.7183 68.6126 42.6817C68.5668 42.645 68.5209 42.6083 68.4659 42.59C68.4109 42.5625 68.3559 42.5533 68.2918 42.535C68.2459 42.5258 68.2093 42.4983 68.1634 42.4983C68.1451 42.4983 68.1359 42.4983 68.1176 42.4983C68.0993 42.4983 68.0901 42.4983 68.0718 42.4983H62.5168C60.3351 39.0975 56.5401 36.9983 52.4793 36.9983C51.5443 36.9983 50.6276 37.1175 49.7293 37.3283V29.665C49.7293 29.61 49.7109 29.5642 49.7018 29.5092C49.6926 29.4542 49.7018 29.3992 49.6743 29.335L45.5676 18.6558H46.0626C46.5668 18.6558 46.9793 18.2433 46.9793 17.7392C46.9793 17.235 46.5668 16.8225 46.0626 16.8225H27.7293C27.2251 16.8225 26.8126 17.235 26.8126 17.7392V34.2942C25.8776 34.34 24.9609 34.45 24.0626 34.6425V27.8317C24.0626 27.3275 23.6501 26.915 23.1459 26.915H22.6876V24.165C22.6876 23.6608 22.2751 23.2483 21.7709 23.2483C21.2668 23.2483 20.8543 23.6608 20.8543 24.165V26.915H20.3959C19.8918 26.915 19.4793 27.3275 19.4793 27.8317V36.3292C14.0343 39.2717 10.3218 45.0375 10.3218 51.6558C10.3218 56.7067 14.4376 60.8225 19.4884 60.8225ZM28.2334 54.4058C28.5084 53.535 28.6551 52.6092 28.6551 51.6558C28.6551 48.6583 27.1976 46 24.9701 44.3225H29.5718V48.9058C29.5718 49.41 29.9843 49.8225 30.4884 49.8225H36.9051V52.5725C36.9051 53.0767 37.3176 53.4892 37.8218 53.4892H41.4884C41.6168 53.8008 41.7634 54.1125 41.9193 54.4058H28.2334ZM36.9051 44.3225V47.9892H31.4051V44.3225H36.9051ZM67.0634 44.3225L66.3301 51.6558H38.7384V44.3225H67.0634ZM48.9593 42.4892C50.0318 41.8933 51.2418 41.5725 52.4884 41.5725C53.7351 41.5725 54.9451 41.8933 56.0176 42.4892H48.9501H48.9593ZM58.1901 53.4892C56.8151 55.2033 54.7526 56.2392 52.4884 56.2392C50.2243 56.2392 48.1526 55.2033 46.7868 53.4892H58.1993H58.1901ZM52.4884 58.9892C48.6751 58.9892 45.2193 56.8258 43.5143 53.4892H44.5776C46.2184 56.3217 49.1884 58.0725 52.4976 58.0725C55.8068 58.0725 58.7768 56.3217 60.4084 53.4892H61.4718C59.7668 56.8258 56.3109 58.9892 52.4976 58.9892H52.4884ZM60.2343 42.4892H59.0151C57.2918 40.7475 54.9451 39.7392 52.4884 39.7392C50.0318 39.7392 47.6759 40.7475 45.9618 42.4892H44.7334C46.6309 40.2067 49.4726 38.8225 52.4884 38.8225C55.5043 38.8225 58.3459 40.2067 60.2434 42.4892H60.2343ZM47.9051 29.83V37.915C45.6868 38.8408 43.7709 40.4267 42.4509 42.4892H28.6551V18.6558H43.6059L47.9051 29.83ZM21.3218 28.7392H22.2384V35.1467C21.9268 35.2475 21.6243 35.3667 21.3218 35.4858V28.7483V28.7392ZM26.8218 36.1183V38.8225H23.1551C22.6509 38.8225 22.2384 39.235 22.2384 39.7392C22.2384 40.2433 22.6509 40.6558 23.1551 40.6558H26.8218V42.4892H20.4051C20.3409 42.4892 20.2859 42.5167 20.2218 42.5258C19.9743 42.5075 19.7359 42.4892 19.4884 42.4892C17.4259 42.4892 15.5193 43.1858 13.9884 44.3408C16.4726 39.6842 21.2668 36.4483 26.8218 36.1183ZM12.1918 50.9133C12.5676 47.2192 15.6934 44.3317 19.4884 44.3317C23.5309 44.3317 26.8218 47.6225 26.8218 51.665C26.8218 55.7075 23.5309 58.9983 19.4884 58.9983C15.4459 58.9983 12.1551 55.7075 12.1551 51.665C12.1551 51.4175 12.1826 51.17 12.1918 50.9133Z" fill="#FCB515"/>
<path d="M19.4885 57.1558C22.5227 57.1558 24.9885 54.69 24.9885 51.6558C24.9885 48.6217 22.5227 46.1558 19.4885 46.1558C16.4544 46.1558 13.9885 48.6217 13.9885 51.6558C13.9885 54.69 16.4544 57.1558 19.4885 57.1558ZM19.4885 47.9892C21.5144 47.9892 23.1552 49.63 23.1552 51.6558C23.1552 53.6817 21.5144 55.3225 19.4885 55.3225C17.4627 55.3225 15.8219 53.6817 15.8219 51.6558C15.8219 49.63 17.4627 47.9892 19.4885 47.9892Z" fill="#FCB515"/>
<path d="M30.4884 40.665H40.5718C40.7826 40.665 40.9843 40.5917 41.1401 40.4633L45.7234 36.7967C45.9434 36.6225 46.0718 36.3567 46.0718 36.0817V29.665C46.0718 29.665 46.0534 29.6008 46.0534 29.5642C46.0534 29.4908 46.0443 29.4083 46.0168 29.335L42.4876 20.1683C42.4876 20.1683 42.4876 20.1683 42.4876 20.1592C42.4601 20.0858 42.4143 20.0308 42.3684 19.9667C42.3409 19.93 42.3226 19.8933 42.2951 19.8567C42.2584 19.82 42.2034 19.7925 42.1576 19.7558C42.1026 19.7192 42.0659 19.6825 42.0018 19.655C41.9651 19.6367 41.9284 19.6367 41.8918 19.6275C41.8184 19.6092 41.7359 19.5817 41.6534 19.5817C41.6534 19.5817 41.6534 19.5817 41.6443 19.5817H30.5068C30.0026 19.5817 29.5901 19.9942 29.5901 20.4983V39.7483C29.5901 40.2525 30.0026 40.665 30.5068 40.665H30.4884ZM40.2509 38.8317H36.9051V21.4058H41.0026L44.2384 29.8208V35.6325L40.2509 38.8317ZM31.4051 21.4058H35.0718V38.8225H31.4051V21.4058Z" fill="#FCB515"/>
</svg>
