<?xml version="1.0" encoding="UTF-8" standalone="no"?>
<!DOCTYPE svg PUBLIC "-//W3C//DTD SVG 1.1//EN" "http://www.w3.org/Graphics/SVG/1.1/DTD/svg11.dtd">
<svg width="100%" height="100%" viewBox="0 0 256 256" version="1.1" xmlns="http://www.w3.org/2000/svg" xmlns:xlink="http://www.w3.org/1999/xlink" xml:space="preserve" xmlns:serif="http://www.serif.com/" style="fill-rule:evenodd;clip-rule:evenodd;stroke-linejoin:round;stroke-miterlimit:2;">
    <g id="punto" transform="matrix(0.25,0,0,0.25,0,0)">
        <rect x="0" y="0" width="1024" height="1024" style="fill:none;"/>
        <g transform="matrix(4,0,0,4,0,0)">
            <path d="M128,0C198.645,0 256,57.355 256,128C256,198.645 198.645,256 128,256C57.355,256 0,198.645 0,128C0,57.355 57.355,0 128,0ZM128,21.846C186.588,21.846 234.154,69.412 234.154,128C234.154,186.588 186.588,234.154 128,234.154C69.412,234.154 21.846,186.588 21.846,128C21.846,69.412 69.412,21.846 128,21.846Z" style="fill:rgb(37,112,43);"/>
        </g>
        <g transform="matrix(5.656854,0,0,5.656854,-212.077344,-212.077344)">
            <circle cx="128" cy="128" r="75.063" style="fill:rgb(253,218,1);"/>
        </g>
        <g transform="matrix(4,0,0,4,0,0)">
            <circle cx="128" cy="128" r="75.063" style="fill:rgb(37,112,43);"/>
        </g>
    </g>
</svg>
